<svg width="18" height="17" viewBox="0 0 18 17" fill="none" xmlns="http://www.w3.org/2000/svg">
<path d="M1.125 3.65625H17.375C17.6875 3.65625 18 3.38281 18 3.03125V1.46875C18 1.15625 17.6875 0.84375 17.375 0.84375H1.125C0.773438 0.84375 0.5 1.15625 0.5 1.46875V3.03125C0.5 3.38281 0.773438 3.65625 1.125 3.65625ZM1.125 9.90625H17.375C17.6875 9.90625 18 9.63281 18 9.28125V7.71875C18 7.40625 17.6875 7.09375 17.375 7.09375H1.125C0.773438 7.09375 0.5 7.40625 0.5 7.71875V9.28125C0.5 9.63281 0.773438 9.90625 1.125 9.90625ZM1.125 16.1562H17.375C17.6875 16.1562 18 15.8828 18 15.5312V13.9688C18 13.6562 17.6875 13.3438 17.375 13.3438H1.125C0.773438 13.3438 0.5 13.6562 0.5 13.9688V15.5312C0.5 15.8828 0.773438 16.1562 1.125 16.1562Z" fill="white"/>
</svg>
