<svg width="184" height="49" viewBox="0 0 184 49" fill="none" xmlns="http://www.w3.org/2000/svg">
<path d="M36.3542 42.4272V22.5024H44.4737V24.3841H38.4679V31.4725H44.0355V33.3541H38.4679V40.5714H44.8345V42.453H36.3542V42.4272Z" fill="white"/>
<path d="M52.6963 42.427H50.3765L46.4327 28.1987H48.5721L51.2528 38.87C51.4075 39.4886 51.5106 40.1072 51.5621 40.7H51.5879C51.7168 39.8494 51.8457 39.2308 51.9746 38.87L55.0677 28.1987H57.1297L52.6963 42.427Z" fill="white"/>
<path d="M60.3776 35.8028C60.3776 39.231 61.6149 40.958 64.1151 40.958C65.1977 40.958 66.2803 40.5714 67.4144 39.8239V41.7313C66.3061 42.3757 65.1204 42.685 63.8574 42.685C62.0531 42.685 60.6612 42.0664 59.7332 40.8033C58.7795 39.5403 58.3156 37.6845 58.3156 35.2357C58.3156 33.0963 58.8053 31.3436 59.759 29.9775C60.7127 28.6113 62.0015 27.9412 63.6512 27.9412C66.7185 27.9412 68.2651 30.1063 68.2651 34.4367V35.8028H60.3776ZM66.2288 34.1789C66.2288 31.1374 65.3266 29.6166 63.5223 29.6166C62.6201 29.6166 61.8984 30.0032 61.3313 30.7765C60.7643 31.5498 60.455 32.6839 60.3776 34.1789H66.2288Z" fill="white"/>
<path d="M77.2865 30.1835C76.8225 30.0031 76.3843 29.9 75.9719 29.9C73.9098 29.9 72.8788 31.6528 72.8788 35.1841V42.4529H70.8683V28.1988H72.8788V30.699H72.9561C73.4459 28.869 74.5027 27.9668 76.1523 27.9668C76.6163 27.9668 77.003 28.0183 77.2865 28.1215V30.1835Z" fill="white"/>
<path d="M79.864 35.8028C79.864 39.231 81.1012 40.958 83.6015 40.958C84.684 40.958 85.7666 40.5714 86.9008 39.8239V41.7313C85.7924 42.3757 84.6067 42.685 83.3437 42.685C81.5394 42.685 80.1475 42.0664 79.2196 40.8033C78.2658 39.5403 77.8019 37.6845 77.8019 35.2357C77.8019 33.0963 78.2916 31.3436 79.2453 29.9775C80.199 28.6113 81.4878 27.9412 83.1375 27.9412C86.2048 27.9412 87.7514 30.1063 87.7514 34.4367V35.8028H79.864ZM85.7151 34.1789C85.7151 31.1374 84.8129 29.6166 83.0086 29.6166C82.1065 29.6166 81.3847 30.0032 80.8177 30.7765C80.2506 31.5498 79.9413 32.6839 79.864 34.1789H85.7151Z" fill="white"/>
<path d="M89.7621 41.9631V39.9268C90.8189 40.6228 91.8499 40.9836 92.8552 40.9836C94.5306 40.9836 95.3812 40.2361 95.3812 38.7669C95.3812 38.3029 95.2266 37.8647 94.8915 37.4781C94.5564 37.0915 93.9378 36.6275 93.0356 36.112C91.6437 35.3387 90.7673 34.6428 90.3807 33.9984C89.9941 33.354 89.7879 32.658 89.7879 31.9105C89.7879 30.7506 90.2003 29.7969 91.0251 29.0752C91.8499 28.3277 92.9067 27.9668 94.2213 27.9668C95.2524 27.9668 96.1803 28.1472 96.9793 28.5339V30.4671C96.0514 29.9258 95.1493 29.668 94.2729 29.668C93.5254 29.668 92.9583 29.8742 92.5201 30.2609C92.0819 30.6475 91.8757 31.1888 91.8757 31.8332C91.8757 32.2714 92.0046 32.7096 92.2881 33.0962C92.5717 33.4828 93.2161 33.9726 94.2729 34.5654C95.639 35.3387 96.4896 36.0089 96.8762 36.6533C97.2629 37.2719 97.4433 37.9936 97.4433 38.7669C97.4433 39.901 97.0309 40.8548 96.2318 41.6023C95.4328 42.3498 94.2986 42.7106 92.881 42.7106C91.6953 42.6848 90.6642 42.4529 89.7621 41.9631Z" fill="white"/>
<path d="M105.908 42.3267C105.341 42.5587 104.722 42.6875 104.052 42.6875C101.99 42.6875 100.959 41.4761 100.959 39.0274V29.9285H99V28.2273H100.959V24.6702C101.036 24.6444 101.165 24.6186 101.371 24.5413C102.145 24.2835 102.686 24.1031 102.995 24V28.1757H105.934V29.8769H102.969V38.7954C102.969 40.1873 103.511 40.8832 104.593 40.8832C105.057 40.8832 105.496 40.7801 105.908 40.5739V42.3267Z" fill="white"/>
<path d="M126.416 41.0868C124.921 42.2209 123.194 42.788 121.286 42.788C119.044 42.788 117.214 41.8858 115.796 40.0557C114.378 38.2256 113.682 35.8027 113.682 32.7869C113.682 29.6165 114.43 27.0647 115.951 25.1057C117.471 23.1467 119.43 22.1672 121.905 22.1672C123.348 22.1672 124.714 22.4765 126.003 23.1209V25.3635C124.637 24.4871 123.271 24.0489 121.879 24.0489C120.126 24.0489 118.709 24.8479 117.6 26.446C116.492 28.0441 115.951 30.1062 115.951 32.5807C115.951 35.1067 116.466 37.1173 117.471 38.6123C118.502 40.1073 119.843 40.8548 121.492 40.8548C122.549 40.8548 123.503 40.5712 124.353 40.0042V33.9984H121.003V32.1167H126.467V41.0868H126.416Z" fill="white"/>
<path d="M136.416 30.1835C135.953 30.0031 135.514 29.9 135.102 29.9C133.04 29.9 132.009 31.6528 132.009 35.1841V42.4529H129.998V28.1988H132.009V30.699H132.086C132.576 28.869 133.633 27.9668 135.282 27.9668C135.746 27.9668 136.133 28.0183 136.416 28.1215V30.1835Z" fill="white"/>
<path d="M142.242 42.685C140.541 42.685 139.226 42.0406 138.298 40.7518C137.37 39.463 136.906 37.6845 136.906 35.4162C136.906 33.0448 137.396 31.2147 138.35 29.9001C139.303 28.5856 140.644 27.9412 142.345 27.9412C144.02 27.9412 145.309 28.5856 146.263 29.8744C147.217 31.1632 147.681 32.9159 147.681 35.1584C147.681 37.5298 147.217 39.3857 146.289 40.7002C145.361 42.0148 143.995 42.685 142.242 42.685ZM142.319 29.7197C141.262 29.7197 140.463 30.2094 139.87 31.1889C139.303 32.1684 138.994 33.5603 138.994 35.3646C138.994 39.0764 140.102 40.9322 142.293 40.9322C144.433 40.9322 145.515 39.0506 145.515 35.2615C145.515 33.483 145.232 32.1169 144.691 31.1632C144.149 30.1837 143.35 29.7197 142.319 29.7197Z" fill="white"/>
<path d="M157.578 42.2541V40.1147H157.527C156.753 41.7128 155.542 42.5118 153.892 42.5118C151.289 42.5118 150 40.9911 150 37.9753V28.0258H152.011V37.4855C152.011 39.6765 152.861 40.7591 154.588 40.7591C155.464 40.7591 156.186 40.4498 156.753 39.7796C157.32 39.1352 157.578 38.2588 157.578 37.1762V28H159.589V42.2541H157.578Z" fill="white"/>
<path d="M165.698 40.6228H165.621V48.9999H163.61V28.1988H165.621V30.5444H165.672C166.42 28.8174 167.683 27.9668 169.435 27.9668C170.879 27.9668 171.987 28.5596 172.735 29.7196C173.508 30.9053 173.895 32.5291 173.895 34.6428C173.895 37.1172 173.482 39.102 172.632 40.5454C171.781 41.9889 170.569 42.7106 168.997 42.7106C167.451 42.6848 166.342 41.9889 165.698 40.6228ZM165.595 34.5397V36.4213C165.595 37.7874 165.852 38.87 166.368 39.6948C166.884 40.5197 167.631 40.9321 168.585 40.9321C170.724 40.9321 171.781 38.87 171.781 34.7716C171.781 33.1478 171.523 31.8847 171.008 31.0084C170.492 30.132 169.77 29.6938 168.817 29.6938C167.811 29.6938 167.038 30.132 166.471 31.0084C165.878 31.8847 165.595 33.0704 165.595 34.5397Z" fill="white"/>
<path d="M60.5579 20.3887L37.4884 8.81536L0.5 37.1431V37.0915L37.3853 0L60.5579 20.363V20.3887Z" fill="white"/>
<path d="M176.287 29.6613V23.8875H178.375C178.814 23.8875 179.123 23.939 179.355 24.0421C179.561 24.1452 179.741 24.3256 179.87 24.5834C179.999 24.8412 180.077 25.1247 180.077 25.4598C180.077 25.898 179.973 26.2588 179.741 26.5166C179.509 26.7744 179.174 26.9548 178.762 27.0321C178.942 27.1352 179.071 27.2383 179.174 27.3414C179.355 27.5734 179.535 27.8054 179.664 28.0631L180.489 29.6355H179.716L179.097 28.4498C178.865 27.9858 178.659 27.6765 178.556 27.4961C178.427 27.3414 178.324 27.2125 178.195 27.161C178.066 27.1094 177.911 27.0837 177.705 27.0837H176.983V29.6355H176.287V29.6613ZM176.906 26.4393H178.246C178.53 26.4393 178.762 26.4135 178.917 26.3362C179.071 26.2588 179.2 26.1557 179.277 26.0011C179.355 25.8464 179.406 25.666 179.406 25.4598C179.406 25.1762 179.329 24.9443 179.149 24.7638C178.968 24.6092 178.736 24.5061 178.401 24.5061H176.906V26.4393Z" fill="white"/>
<path d="M178.122 31.2662C180.698 31.2662 182.787 29.1774 182.787 26.6007C182.787 24.0241 180.698 21.9353 178.122 21.9353C175.545 21.9353 173.456 24.0241 173.456 26.6007C173.456 29.1774 175.545 31.2662 178.122 31.2662Z" stroke="white" stroke-width="0.5" stroke-miterlimit="10"/>
</svg>
