<svg width="46" height="62" viewBox="0 0 46 62" fill="none" xmlns="http://www.w3.org/2000/svg">
<path d="M23 1L1 16.0575V46L23 61L45 46V16.0575L23 1Z" stroke="#2B416D"/>
<path d="M20.6094 43H25.0156V32.2656H28.4375L29 28H25.0156V25.0469C25.0156 24.3906 25.1094 23.875 25.3906 23.5469C25.6719 23.1719 26.2812 22.9844 27.125 22.9844H29.375V19.1875C28.5312 19.0938 27.4062 19 26.0938 19C24.4062 19 23.0938 19.5156 22.1094 20.5C21.0781 21.4844 20.6094 22.8438 20.6094 24.625V28H17V32.2656H20.6094V43Z" fill="white"/>
</svg>
