<?xml version="1.0" encoding="UTF-8"?>
<svg xmlns="http://www.w3.org/2000/svg" viewBox="0 0 616.75 178.31">
  <defs>
    <style>
      .cls-1 {
        fill: #fff;
        stroke-width: 0px;
      }
    </style>
  </defs>
  <path class="cls-1" d="M219.79,106.47c9.14,0,16.74-8.11,16.74-18.28s-7.6-18.28-16.74-18.28-16.61,8.11-16.61,18.28,7.6,18.28,16.61,18.28M205.11,121.02c2.7,5.41,8.11,9.14,14.29,9.14,9.01,0,16.22-7.85,16.22-17.51v-.65l-.25-.13c-5.02,5.02-11.46,8.11-18.67,8.11-15.44,0-27.93-14.29-27.93-31.8s12.49-31.8,27.93-31.8c7.21,0,13.65,3.09,18.67,8.24l.25-.13v-6.44h14.42v54.58c0,17.25-12.74,31.15-29.99,31.15-11.58,0-21.63-6.18-27.03-15.58l12.1-7.21ZM302.04,79.83l.13-.26c-3.22-5.92-8.88-9.91-15.44-9.91s-12.1,3.73-15.58,9.91l.13.26h30.77ZM300.37,100.55l10.04,9.91c-5.79,5.92-13.9,9.53-22.78,9.53-17.77,0-31.93-14.16-31.93-31.79s13.78-31.8,31.03-31.8,30.89,14.16,30.89,31.8c0,2.83-.25,3.6-.25,3.6h-47.24c0,6.7,7.85,14.55,16.86,14.55,5.28,0,9.91-2.32,13.39-5.79M338.1,88.19v30.12h-14.42v-60.24h14.42v7.34l.26.13c4.89-6.05,11.46-9.14,18.28-9.14,25.74,0,26.39,23.43,26.39,30.64v31.28h-14.42v-30.12c0-7.21-.13-18.28-15.06-18.28-8.5,0-15.45,8.11-15.45,18.28M420.33,69.91c-9.27,0-16.74,8.11-16.74,18.15s7.47,18.28,16.74,18.28,16.61-8.11,16.61-18.28-7.6-18.15-16.61-18.15M423.42,119.99c-7.34,0-13.65-2.96-18.79-8.24l-.26.13v30.25h-14.42V58.07h14.42v6.31l.26.13c5.15-5.02,11.46-8.11,18.79-8.11,15.45,0,27.94,14.16,27.94,31.79s-12.49,31.8-27.94,31.8M487.27,106.34c9.14,0,16.61-7.98,16.61-18.15s-7.47-18.28-16.61-18.28-16.6,8.11-16.6,18.28,7.59,18.15,16.6,18.15M484.18,56.4c7.21,0,13.65,3.09,18.67,8.24l.26-.13v-6.44h14.42v60.25h-14.42v-6.18l-.26-.26c-5.02,5.02-11.46,8.11-18.67,8.11-15.44,0-27.94-14.16-27.94-31.79s12.49-31.8,27.94-31.8M577.76,110.46c-5.79,5.92-13.9,9.53-22.79,9.53-17.77,0-31.93-14.16-31.93-31.79s14.16-31.8,31.93-31.8c8.89,0,16.99,3.6,22.79,9.53l-10.17,9.53c-3.22-3.47-7.6-5.54-12.61-5.54-9.78,0-17.51,8.24-17.51,18.28s7.72,18.15,17.51,18.15c5.02,0,9.65-2.18,12.87-5.66l9.91,9.78ZM606.75,71.98v46.34h-14.42v-46.34h-10v-13.91h10v-27.03h14.42v27.03h10v13.91h-10ZM67.46,90.07l31.19-21.65,28.85,19.81-31.58,21.47-28.46-19.63ZM62.39,178.31v-45.38s-29.79-20.75-29.79-20.75v-43.12L0,46.56v88.29l62.39,43.46ZM2.13,43.84l31.64,21.84,31.47-21.93,33.36,22.93,30.19-22.5L65.24,0,2.13,43.84ZM129.35,91.15l-63.51,43.18v43.82s63.51-43.18,63.51-43.18v-43.82ZM65.84,93.13v37.02l27.02-18.37-27.02-18.65Z"/>
</svg>