<svg width="46" height="62" viewBox="0 0 46 62" fill="none" xmlns="http://www.w3.org/2000/svg">
<path d="M23 1L1 16.0575V46L23 61L45 46V16.0575L23 1Z" stroke="#2B416D"/>
<path d="M16.6875 41.5V27.4844H12.3281V41.5H16.6875ZM14.5312 25.5625C15.1875 25.5625 15.7969 25.3281 16.3125 24.8125C16.7812 24.3438 17.0625 23.7344 17.0625 23.0312C17.0625 22.375 16.7812 21.7656 16.3125 21.25C15.7969 20.7812 15.1875 20.5 14.5312 20.5C13.8281 20.5 13.2188 20.7812 12.75 21.25C12.2344 21.7656 12 22.375 12 23.0312C12 23.7344 12.2344 24.3438 12.75 24.8125C13.2188 25.3281 13.8281 25.5625 14.5312 25.5625ZM33 41.5V33.8125C33 31.6562 32.6719 30.0625 32.0625 29.0312C31.2188 27.7656 29.8125 27.1094 27.7969 27.1094C26.7656 27.1094 25.9219 27.3906 25.1719 27.8594C24.4688 28.2812 23.9531 28.7969 23.6719 29.4062H23.625V27.4844H19.4531V41.5H23.7656V34.5625C23.7656 33.4844 23.9062 32.6406 24.2344 32.0781C24.6094 31.3281 25.3125 30.9531 26.3438 30.9531C27.3281 30.9531 27.9844 31.375 28.3594 32.2188C28.5469 32.7344 28.6406 33.5312 28.6406 34.6562V41.5H33Z" fill="white"/>
</svg>
