<svg width="46" height="62" viewBox="0 0 46 62" fill="none" xmlns="http://www.w3.org/2000/svg">
<path d="M23 1L1 16.0575V46L23 61L45 46V16.0575L23 1Z" stroke="#2B416D"/>
<path d="M32.5156 26.125C33.4531 25.4219 34.2969 24.5781 35 23.5469C34.0625 23.9688 33.125 24.25 32.1875 24.3438C33.2188 23.6875 33.9688 22.7969 34.3438 21.625C33.3594 22.1875 32.3281 22.6094 31.2031 22.7969C30.7344 22.3281 30.1719 21.9531 29.5625 21.6719C28.9531 21.3906 28.2969 21.25 27.5938 21.25C26.7031 21.25 25.9062 21.4844 25.1562 21.9062C24.4062 22.375 23.7969 22.9844 23.375 23.7344C22.9062 24.4844 22.7188 25.3281 22.7188 26.1719C22.7188 26.5469 22.7188 26.9219 22.8125 27.2969C20.7969 27.2031 18.9219 26.7344 17.1406 25.7969C15.3594 24.9062 13.9062 23.6875 12.6875 22.1406C12.2188 22.9375 11.9844 23.7812 11.9844 24.625C11.9844 25.4688 12.1719 26.2656 12.5938 26.9688C12.9688 27.7188 13.5312 28.2812 14.1875 28.75C13.3906 28.75 12.6406 28.5156 11.9844 28.0938V28.1875C11.9844 29.3594 12.3594 30.3906 13.1094 31.2812C13.8594 32.2188 14.7969 32.7812 15.9219 33.0156C15.4531 33.1094 15.0312 33.1562 14.6094 33.1562C14.3281 33.1562 14 33.1562 13.7188 33.1094C14 34.0938 14.5625 34.8906 15.4062 35.5469C16.25 36.2031 17.1875 36.4844 18.3125 36.4844C16.4844 37.8906 14.4219 38.5938 12.1719 38.5938C11.7031 38.5938 11.3281 38.5938 11 38.5469C13.25 40.0469 15.7812 40.75 18.5469 40.75C21.4062 40.75 23.9375 40.0469 26.1875 38.5469C28.2031 37.2344 29.7969 35.5 30.9219 33.25C32 31.1875 32.5625 28.9844 32.5625 26.7344C32.5625 26.4531 32.5156 26.2656 32.5156 26.125Z" fill="white"/>
</svg>
