<svg width="46" height="62" viewBox="0 0 46 62" fill="none" xmlns="http://www.w3.org/2000/svg">
<path d="M23 1L1 16.0575V46L23 61L45 46V16.0575L23 1Z" stroke="#2B416D"/>
<path d="M34.7812 24.8125C34.9688 25.6562 35.1562 26.9688 35.25 28.6562L35.2969 31L35.25 33.3438C35.1562 35.125 34.9688 36.3906 34.7812 37.2344C34.5938 37.7969 34.3125 38.2656 33.9375 38.6406C33.5156 39.0625 33.0469 39.3438 32.4844 39.4844C31.6406 39.7188 29.7656 39.8594 26.7656 39.9531L22.5 40L18.2344 39.9531C15.2344 39.8594 13.3125 39.7188 12.5156 39.4844C11.9531 39.3438 11.4375 39.0625 11.0625 38.6406C10.6406 38.2656 10.3594 37.7969 10.2188 37.2344C9.98438 36.3906 9.84375 35.125 9.75 33.3438L9.70312 31C9.70312 30.3438 9.70312 29.5469 9.75 28.6562C9.84375 26.9688 9.98438 25.6562 10.2188 24.8125C10.3594 24.25 10.6406 23.7812 11.0625 23.3594C11.4375 22.9844 11.9531 22.7031 12.5156 22.5156C13.3125 22.3281 15.2344 22.1406 18.2344 22.0469L22.5 22L26.7656 22.0469C29.7656 22.1406 31.6406 22.3281 32.4844 22.5156C33.0469 22.7031 33.5156 22.9844 33.9375 23.3594C34.3125 23.7812 34.5938 24.25 34.7812 24.8125ZM19.875 34.8438L26.5781 31L19.875 27.2031V34.8438Z" fill="white"/>
</svg>
